{"title":"Bad Santa 2003 Extended.1080p.BluRay 5.1.x264 . NVEE","uid":11956298,"size":2403731038,"categoryP":"video","categoryS":"hd___movies","magnet":"?xt=urn:btih:98ea0333e919ab6be1ef3e961d2260ade4be0fa8&amp;dn=Bad+Santa+2003+Extended.1080p.BluRay+5.1.x264+.+NVEE&amp;tr=udp%3A%2F%2Ftracker.openbittorrent.com%3A80&amp;tr=udp%3A%2F%2Fopen.demonii.com%3A1337&amp;tr=udp%3A%2F%2Ftracker.coppersurfer.tk%3A6969&amp;tr=udp%3A%2F%2Fexodus.desync.com%3A6969","seeders":1,"leechers":0,"uploader":".NVEE","files":1,"time":1432436873,"description":"Quick note : \n\nTrackers refresh never most current &amp; so if, \nYou require a torrent release I have posted in the past, not seeding,... \nPlease do not hesitate to inform me in any means you find fit to do so. \nTorrent requests also &quot;Always Welcome.&quot; \n\n \nFULL_INFOs \n\n99.99% &gt;&gt;&gt; SYNCED GUARANTEED \n\n&quot;Totally scrutinized / analyzed to be a verified torrent.&quot; \n___________________________________________ \n\nSource : Blu-ray ~ 1080p \n\n \n\nSpoken Language : English \n\nAudio : 6 ~ Channels Only \n\n \nSubs Info : \n\nN/A \nAll .srt UTF-8 .idx &amp; .ass subs can be turned On/Off \n_____________________________________ \n--------------------------------------------------------------------------------- \n \nGeneral Metadata \n\nComplete name : Bad Santa 2003 Extended.1080p.BluRay 5.1.x264 . NVEE.mp4 \nFormat : MPEG-4 \nFormat profile : Base Media \nCodec ID : isom \nFile size : 2.24 GiB \nDuration : 1h 39mn \nOverall bit rate : 3 218 Kbps \nEncoded date : UTC 2015-05-24 00:00:34 \nTagged date : UTC 2015-05-24 00:00:34 \n\n \nVideo \n\nID : 1 \nFormat : AVC \nFormat/Info : Advanced Video Codec \nFormat profile : &lt;a class=&quot;__cf_email__&quot; href=&quot;/cdn-cgi/l/email-protection&quot; data-cfemail=&quot;84ccede3ecc4c8b1aab5&quot;&gt;[email&amp;#160;protected]&lt;/a&gt;&lt;script data-cfhash='f9e31' type=&quot;text/javascript&quot;&gt;\n/* &lt;![CDATA[ */!function(){try{var t=&quot;currentScript&quot;in document?document.currentScript:function(){for(var t=document.getElementsByTagName(&quot;script&quot;),e=t.length;e--;)if(t[e].getAttribute(&quot;data-cfhash&quot;))return t[e]}();if(t&amp;&amp;t.previousSibling){var e,r,n,i,c=t.previousSibling,a=c.getAttribute(&quot;data-cfemail&quot;);if(a){for(e=&quot;&quot;,r=parseInt(a.substr(0,2),16),n=2;a.length-n;n+=2)i=parseInt(a.substr(n,2),16)^r,e+=String.fromCharCode(i);e=document.createTextNode(e),c.parentNode.replaceChild(e,c)}t.parentNode.removeChild(t);}}catch(u){}}()/* ]]&gt; */&lt;/script&gt; \nFormat settings, CABAC : Yes \nFormat settings, ReFrames : 6 frames \nCodec ID : avc1 \nCodec ID/Info : Advanced Video Coding \nDuration : 1h 39mn \nBit rate : 2 578 Kbps \nMaximum bit rate : 8 977 Kbps \nWidth : 1 920 pixels \nHeight : 1 040 pixels \nDisplay aspect ratio : 1.85:1 \nFrame rate mode : Constant \nFrame rate : 23.976 fps \nColor space : YUV \nChroma subsampling : 4:2:0 \nBit depth : 8 bits \nScan type : Progressive \nBits/(Pixel*Frame) : 0.054 \nStream size : 1.79 GiB (80%) \nWriting library : x264 core 146 r2538 121396c \nEncoded from Physical Blu-ray / Region B \n\n \nAudio \n\nID : 2 \nFormat : AC-3 \nFormat/Info : Audio Coding 3 \nMode extension : CM (complete main) \nFormat settings, Endianness : Big \nCodec ID : ac-3 \nDuration : 1h 39mn \nBit rate mode : Constant \nBit rate : 640 Kbps \nMaximum bit rate : 676 Kbps \nChannel(s) : 6 channels \nChannel positions : Front: L C R, Side: L R, LFE \nSampling rate : 48.0 KHz \nBit depth : 16 bits \nCompression mode : Lossy \nStream size : 456 MiB (20%) \nEncoded date : UTC 2015-05-24 00:10:27 \nTagged date : UTC 2015-05-24 00:11:48 \nEncoded from Physical Blu-ray 6 Channel audio &quot;Always&quot;. \n\n \n\n \n\n \n\n\n\n\nEnj0y !","torrent":{"xt":"urn:btih:98ea0333e919ab6be1ef3e961d2260ade4be0fa8","amp;dn":"Bad+Santa+2003+Extended.1080p.BluRay+5.1.x264+.+NVEE","amp;tr":["udp%3A%2F%2Ftracker.openbittorrent.com%3A80","udp%3A%2F%2Fopen.demonii.com%3A1337","udp%3A%2F%2Ftracker.coppersurfer.tk%3A6969","udp%3A%2F%2Fexodus.desync.com%3A6969"],"infoHash":"98ea0333e919ab6be1ef3e961d2260ade4be0fa8","infoHashBuffer":{"type":"Buffer","data":[152,234,3,51,233,25,171,107,225,239,62,150,29,34,96,173,228,190,15,168]},"announce":[],"urlList":[]}}